<?xml version="1.0" encoding="UTF-8"?>
<svg id="Layer_1" data-name="Layer 1" xmlns="http://www.w3.org/2000/svg" viewBox="0 0 299.15 101.83">
  <defs>
    <style>
      .cls-1 {
        fill: #fff;
      }
    </style>
  </defs>
  <path class="cls-1" d="M7.69,7.45l-5.29-.64v-3.04h15.29l5.83,21.07,1.37,5.73,1.18-5.73L31.85,3.77h15.14v3.04l-5.34.64,3.92,29.25,3.97.54v2.94h-15.63v-2.94l4.31-.49-2.16-21.46-.93-8.97-1.81,7.55-7.1,24.79h-5.19l-7.25-23.52-2.5-8.82-.74,8.97-1.86,21.46,4.95.49v2.94H0v-2.94l4.12-.49L7.69,7.45Z"/>
  <path class="cls-1" d="M55.83,25.82c2.99-1.5,6.85-2.27,11.59-2.3v-1.13c0-1.34-.14-2.38-.42-3.14s-.78-1.31-1.52-1.69c-.74-.38-1.81-.56-3.21-.56-1.6,0-3.04.2-4.31.61-1.27.41-2.6.94-3.97,1.59l-1.52-3.14c.49-.42,1.31-.93,2.47-1.52,1.16-.59,2.54-1.1,4.14-1.54,1.6-.44,3.25-.66,4.95-.66,2.51,0,4.48.33,5.9.98,1.42.65,2.44,1.7,3.06,3.14.62,1.44.93,3.36.93,5.78v14.99h2.65v2.74c-.65.16-1.58.33-2.79.49-1.21.16-2.27.25-3.19.25-1.11,0-1.85-.16-2.23-.49-.38-.33-.56-1-.56-2.01v-1.32c-.88.98-2.03,1.86-3.43,2.65-1.41.78-2.99,1.18-4.75,1.18-1.5,0-2.88-.32-4.14-.96-1.26-.64-2.26-1.57-3.01-2.79-.75-1.23-1.13-2.7-1.13-4.43,0-2.97,1.49-5.21,4.48-6.71ZM65.12,36.04c.88-.41,1.65-.91,2.3-1.49v-8.04c-2.94,0-5.14.5-6.59,1.49-1.45,1-2.18,2.28-2.18,3.85s.37,2.76,1.1,3.58c.74.82,1.74,1.23,3.01,1.23.69,0,1.47-.2,2.35-.61Z"/>
  <path class="cls-1" d="M105.03,33.22c-1.13,2.29-2.78,4.11-4.95,5.46-2.17,1.36-4.76,2.03-7.77,2.03-.65,0-1.33-.06-2.03-.17-.7-.12-1.27-.25-1.69-.42l.15,4.07v4.46l4.56.59v2.79h-14.55v-2.79l3.18-.59v-31.07l-3.18-.88v-3.38l8.08-1.03h.1l1.23.98v2.74c.82-1.01,1.93-1.89,3.33-2.65,1.4-.75,2.94-1.13,4.61-1.13,3.1,0,5.65,1.1,7.64,3.31,1.99,2.21,2.99,5.58,2.99,10.12,0,2.74-.56,5.26-1.69,7.55ZM90.75,16.95c-.88.42-1.55.9-2.01,1.42v18.18c.23.33.69.6,1.4.83.7.23,1.48.34,2.33.34,2.12,0,3.81-.92,5.07-2.77,1.26-1.85,1.89-4.74,1.89-8.7,0-3.33-.54-5.82-1.62-7.47-1.08-1.65-2.5-2.47-4.26-2.47-.98,0-1.91.21-2.79.64Z"/>
  <path class="cls-1" d="M113.58,4.36l-3.63-.64V1.08l9.07-1.08h.1l1.32.93v35.92l3.58.39v2.94h-13.87v-2.94l3.43-.44V4.36Z"/>
  <path class="cls-1" d="M130.12,36.92c-2.11-2.53-3.16-5.99-3.16-10.36,0-2.94.55-5.49,1.64-7.64,1.09-2.16,2.64-3.81,4.63-4.95,1.99-1.14,4.29-1.72,6.91-1.72,3.27,0,5.78.86,7.55,2.57,1.76,1.71,2.68,4.16,2.74,7.33,0,2.16-.13,3.76-.39,4.8h-15.92c.13,2.97.83,5.28,2.11,6.93,1.27,1.65,3.09,2.47,5.44,2.47,1.27,0,2.59-.21,3.94-.64,1.36-.42,2.43-.93,3.21-1.52l1.22,2.69c-.88.95-2.31,1.82-4.29,2.62-1.98.8-3.98,1.2-6,1.2-4.31,0-7.52-1.27-9.63-3.8ZM143.57,24.01c.07-.91.1-1.62.1-2.11,0-4.34-1.45-6.52-4.36-6.52-1.6,0-2.84.64-3.72,1.91-.88,1.27-1.37,3.51-1.47,6.71h9.46Z"/>
  <path class="cls-1" d="M152.14,1.08l8.97-1.08h.1l1.37.93v14.46c.88-.88,1.97-1.62,3.26-2.23,1.29-.6,2.69-.91,4.19-.91,3.14,0,5.69,1.1,7.67,3.31,1.98,2.21,2.96,5.58,2.96,10.12,0,2.81-.59,5.36-1.76,7.64-1.18,2.29-2.87,4.09-5.07,5.41-2.21,1.32-4.76,1.98-7.67,1.98-2.58,0-4.82-.22-6.71-.66s-3.1-.84-3.63-1.2V4.21l-3.67-.59V1.08ZM164.66,17.22c-.87.44-1.56.94-2.08,1.49v17.88c.2.36.65.65,1.37.88s1.54.34,2.45.34c2.09,0,3.76-.97,5.02-2.92,1.26-1.94,1.89-4.83,1.89-8.65,0-3.3-.54-5.74-1.62-7.33-1.08-1.58-2.5-2.38-4.26-2.38-.98,0-1.9.22-2.77.66Z"/>
  <path class="cls-1" d="M184.63,37.29l3.23-.39v-19.31l-3.14-.88v-3.38l7.6-1.03h.15l1.22.98v1.08l-.15,3.97h.15c.23-.65.77-1.46,1.62-2.43.85-.96,1.92-1.81,3.21-2.55,1.29-.73,2.69-1.1,4.19-1.1.72,0,1.34.1,1.86.29v7.35c-.98-.69-2.17-1.03-3.58-1.03-2.38,0-4.46.64-6.22,1.91v16.07l5.68.44v2.89h-15.83v-2.89Z"/>
  <path class="cls-1" d="M209.55,18.77c1.22-2.16,2.87-3.78,4.92-4.88,2.06-1.09,4.29-1.64,6.71-1.64,4.12,0,7.29,1.27,9.53,3.8,2.24,2.53,3.36,5.97,3.36,10.31,0,3.1-.61,5.74-1.84,7.91-1.22,2.17-2.86,3.79-4.9,4.85-2.04,1.06-4.29,1.59-6.74,1.59-4.08,0-7.25-1.27-9.51-3.8-2.25-2.53-3.38-5.97-3.38-10.31,0-3.07.61-5.68,1.84-7.84ZM226.52,26.85c0-3.72-.44-6.56-1.32-8.5-.88-1.94-2.32-2.92-4.31-2.92-3.79,0-5.68,3.56-5.68,10.68,0,3.72.47,6.56,1.4,8.5.93,1.94,2.39,2.92,4.39,2.92,3.69,0,5.54-3.56,5.54-10.68Z"/>
  <path class="cls-1" d="M240.37,18.77c1.22-2.16,2.87-3.78,4.92-4.88,2.06-1.09,4.29-1.64,6.71-1.64,4.12,0,7.29,1.27,9.53,3.8,2.24,2.53,3.36,5.97,3.36,10.31,0,3.1-.61,5.74-1.84,7.91-1.22,2.17-2.86,3.79-4.9,4.85-2.04,1.06-4.29,1.59-6.74,1.59-4.08,0-7.25-1.27-9.51-3.8-2.25-2.53-3.38-5.97-3.38-10.31,0-3.07.61-5.68,1.84-7.84ZM257.35,26.85c0-3.72-.44-6.56-1.32-8.5-.88-1.94-2.32-2.92-4.31-2.92-3.79,0-5.68,3.56-5.68,10.68,0,3.72.47,6.56,1.4,8.5.93,1.94,2.39,2.92,4.39,2.92,3.69,0,5.54-3.56,5.54-10.68Z"/>
  <path class="cls-1" d="M271.6,4.36l-3.53-.64V1.08l9.02-1.08h.1l1.32.93v23.27l-.15,2.6,10-10.49-3.63-.54v-2.79h12.79v2.79l-3.97.64-6.03,5.78,8.58,14.65,2.7.39v2.94h-12.94v-2.94l2.5-.44-5.59-10.34-4.41,4.46.1,2.5v3.38l3.09.44v2.94h-12.79v-2.94l2.84-.44V4.36Z"/>
  <path class="cls-1" d="M4.11,62.81l-3.19-.55v-2.64h6.42c.6,0,1.52-.03,2.77-.08,1.64-.11,3.13-.17,4.47-.17,2.95,0,5.28.36,7,1.08,1.72.72,2.94,1.76,3.66,3.11.72,1.35,1.08,3.06,1.08,5.13,0,3.57-1.11,6.35-3.34,8.34s-5.31,2.98-9.25,2.98c-1.56,0-2.68-.04-3.36-.13v8.38l5.7.43v2.55H.75v-2.55l3.36-.43v-25.44ZM13.64,77.36c1.9,0,3.42-.66,4.57-1.98,1.15-1.32,1.72-3.51,1.72-6.57,0-2.38-.52-4.12-1.55-5.21-1.04-1.09-2.62-1.64-4.74-1.64-.79,0-1.62.06-2.47.17-.4.06-.68.08-.85.08v14.93c.65.14,1.76.21,3.32.21Z"/>
  <path class="cls-1" d="M46.23,91.06c-.42-.4-.64-.99-.64-1.79v-1.15c-.77.94-1.84,1.77-3.23,2.49-1.39.72-2.78,1.08-4.17,1.08-2.72,0-4.67-.7-5.83-2.11-1.16-1.4-1.74-3.72-1.74-6.96v-12l-2.13-.6v-2.42l7.23-.55h.04l.85.6v14.98c0,2.07.26,3.52.77,4.34.51.82,1.46,1.23,2.85,1.23,1.67,0,3.23-.65,4.68-1.96v-15.61l-2.85-.64v-2.38l7.7-.55h.08l1.02.6v20.93h2.38l-.04,2.42c-.11.03-.64.14-1.57.34-.94.2-2.06.3-3.36.3-.94,0-1.62-.2-2.04-.6Z"/>
  <path class="cls-1" d="M54.36,57.28l7.79-.94h.09l1.19.81v12.55c.77-.77,1.71-1.41,2.83-1.94,1.12-.53,2.33-.79,3.64-.79,2.72,0,4.94.96,6.66,2.87,1.72,1.92,2.57,4.84,2.57,8.79,0,2.44-.51,4.65-1.53,6.64-1.02,1.99-2.49,3.55-4.4,4.7-1.92,1.15-4.13,1.72-6.66,1.72-2.24,0-4.18-.19-5.83-.57-1.65-.38-2.69-.73-3.15-1.04v-30.08l-3.19-.51v-2.21ZM65.23,71.3c-.75.38-1.35.82-1.81,1.3v15.53c.17.31.57.57,1.19.77s1.33.3,2.13.3c1.82,0,3.27-.84,4.36-2.53,1.09-1.69,1.64-4.19,1.64-7.51,0-2.86-.47-4.98-1.4-6.36-.94-1.38-2.17-2.06-3.7-2.06-.85,0-1.65.19-2.4.57Z"/>
  <path class="cls-1" d="M85.03,60.13l-3.15-.55v-2.3l7.87-.94h.08l1.15.81v31.18l3.11.34v2.55h-12.04v-2.55l2.98-.38v-28.16Z"/>
  <path class="cls-1" d="M99.84,71.62l-3.02-.81v-2.85l7.79-.94h.08l1.19.85v20.46l2.85.34v2.55h-11.87v-2.55l2.98-.38v-16.68ZM99.67,62.81c-.59-.6-.89-1.36-.89-2.3,0-1.08.34-1.97,1.02-2.68s1.59-1.06,2.72-1.06,2,.3,2.6.92.89,1.37.89,2.28c0,1.13-.34,2.04-1.02,2.72-.68.68-1.63,1.02-2.85,1.02h-.04c-1.02,0-1.83-.3-2.43-.89Z"/>
  <path class="cls-1" d="M112.71,73.02c.98-1.9,2.38-3.38,4.21-4.45s3.96-1.59,6.4-1.59c1.13,0,2.11.08,2.94.25.82.17,1.74.4,2.76.68l1.23.34-.26,7.27h-3.7l-1.06-4.68c-.17-.74-1.01-1.11-2.51-1.11-1.59,0-2.83.7-3.72,2.08s-1.36,3.56-1.38,6.51c0,3.12.54,5.51,1.62,7.17s2.51,2.49,4.3,2.49c2.16,0,4.14-.58,5.96-1.74l.98,2.21c-.74.79-1.87,1.53-3.38,2.21-1.52.68-3.16,1.02-4.91,1.02-3.63,0-6.36-1.12-8.19-3.36-1.83-2.24-2.74-5.18-2.74-8.81,0-2.44.49-4.61,1.47-6.51Z"/>
  <path class="cls-1" d="M147.1,62.81l-3.28-.55v-2.64h13.61v2.64l-4.08.55v25.4l9.1-.38,2.68-7.96,3.45.47-1.32,10.89h-23.53v-2.55l3.36-.43v-25.44Z"/>
  <path class="cls-1" d="M173.9,71.62l-3.02-.81v-2.85l7.79-.94h.08l1.19.85v20.46l2.85.34v2.55h-11.87v-2.55l2.98-.38v-16.68ZM173.73,62.81c-.59-.6-.89-1.36-.89-2.3,0-1.08.34-1.97,1.02-2.68s1.59-1.06,2.72-1.06,2,.3,2.6.92.89,1.37.89,2.28c0,1.13-.34,2.04-1.02,2.72-.68.68-1.63,1.02-2.85,1.02h-.04c-1.02,0-1.83-.3-2.43-.89Z"/>
  <path class="cls-1" d="M183.94,57.28l7.79-.94h.09l1.19.81v12.55c.77-.77,1.71-1.41,2.83-1.94,1.12-.53,2.33-.79,3.64-.79,2.72,0,4.94.96,6.66,2.87,1.72,1.92,2.57,4.84,2.57,8.79,0,2.44-.51,4.65-1.53,6.64-1.02,1.99-2.49,3.55-4.4,4.7-1.92,1.15-4.13,1.72-6.66,1.72-2.24,0-4.18-.19-5.83-.57-1.65-.38-2.69-.73-3.15-1.04v-30.08l-3.19-.51v-2.21ZM194.81,71.3c-.75.38-1.35.82-1.81,1.3v15.53c.17.31.57.57,1.19.77s1.33.3,2.13.3c1.82,0,3.27-.84,4.36-2.53,1.09-1.69,1.64-4.19,1.64-7.51,0-2.86-.47-4.98-1.4-6.36-.94-1.38-2.17-2.06-3.7-2.06-.85,0-1.65.19-2.4.57Z"/>
  <path class="cls-1" d="M212.15,88.72l2.81-.34v-16.76l-2.72-.77v-2.94l6.59-.89h.13l1.06.85v.94l-.13,3.45h.13c.2-.57.67-1.27,1.4-2.11.74-.84,1.67-1.57,2.79-2.21,1.12-.64,2.33-.96,3.64-.96.62,0,1.16.08,1.62.25v6.38c-.85-.6-1.89-.89-3.11-.89-2.07,0-3.87.55-5.4,1.66v13.95l4.94.38v2.51h-13.74v-2.51Z"/>
  <path class="cls-1" d="M235.61,78.77c2.6-1.3,5.95-1.97,10.06-2v-.98c0-1.16-.12-2.07-.36-2.72-.24-.65-.68-1.14-1.32-1.47-.64-.33-1.57-.49-2.79-.49-1.39,0-2.64.18-3.74.53-1.11.35-2.25.82-3.45,1.38l-1.32-2.72c.43-.37,1.14-.81,2.15-1.32s2.21-.96,3.6-1.34c1.39-.38,2.82-.57,4.3-.57,2.18,0,3.89.28,5.13.85,1.23.57,2.12,1.48,2.66,2.72.54,1.25.81,2.92.81,5.02v13.02h2.3v2.38c-.57.14-1.38.28-2.42.43-1.05.14-1.97.21-2.77.21-.96,0-1.61-.14-1.94-.43s-.49-.86-.49-1.74v-1.15c-.77.85-1.76,1.62-2.98,2.3-1.22.68-2.6,1.02-4.13,1.02-1.3,0-2.5-.28-3.6-.83-1.09-.55-1.96-1.36-2.62-2.42s-.98-2.35-.98-3.85c0-2.58,1.3-4.52,3.89-5.83ZM243.67,87.64c.77-.35,1.43-.79,2-1.3v-6.98c-2.55,0-4.46.43-5.72,1.3-1.26.87-1.89,1.98-1.89,3.34s.32,2.4.96,3.11c.64.71,1.51,1.06,2.62,1.06.6,0,1.28-.18,2.04-.53Z"/>
  <path class="cls-1" d="M256.27,88.72l2.81-.34v-16.76l-2.72-.77v-2.94l6.59-.89h.13l1.06.85v.94l-.13,3.45h.13c.2-.57.67-1.27,1.4-2.11.74-.84,1.67-1.57,2.79-2.21,1.12-.64,2.33-.96,3.64-.96.62,0,1.16.08,1.62.25v6.38c-.85-.6-1.89-.89-3.11-.89-2.07,0-3.87.55-5.4,1.66v13.95l4.94.38v2.51h-13.74v-2.51Z"/>
  <path class="cls-1" d="M278.45,101.7c-.58-.08-1-.18-1.25-.3v-4.55c.2.11.6.23,1.19.34.6.11,1.13.17,1.62.17,1.42,0,2.59-.47,3.51-1.4.92-.94,1.78-2.51,2.57-4.72h-2.3l-8-20.63-1.92-.55v-2.47h11.7v2.47l-3.11.51,3.79,11.79,1.53,5.02,1.32-5.02,3.49-11.79-2.68-.51v-2.47h9.23v2.47l-2.08.51c-1.56,4.76-3.11,9.36-4.64,13.78-1.53,4.42-2.43,6.91-2.68,7.45-.91,2.38-1.77,4.28-2.59,5.7-.82,1.42-1.8,2.5-2.94,3.23-1.13.74-2.51,1.11-4.13,1.11-.51,0-1.06-.04-1.64-.13Z"/>
</svg>